<svg id="Layer_1" data-name="Layer 1" xmlns="http://www.w3.org/2000/svg" viewBox="0 0 181 112.17"><defs><style>.cls-1{fill:#3fa9f5;}.cls-2{fill:#fff;}</style></defs><title>logo</title><g id="compacte"><path class="cls-1" d="M997.5,486.92c-50,0-90.5,25.1-90.5,56.08s40.52,56.08,90.5,56.08S1088,574,1088,543,1047.48,486.92,997.5,486.92Zm-7.26,29.46c-2.59.09-4.39-1.47-4.47-3.82a4,4,0,0,1,.79-2.51c.58-1.13.7-1.26.69-1.75-.06-1.49-2.3-1.54-2.91-1.51-8.42.27-10.64,11.64-12.44,20.87l-.88,4.88c4.85.7,8.29-.17,10.21-1.41,2.7-1.76-.76-3.56-.32-5.55a4,4,0,0,1,3.76-3.06c2.06,0,3.53,2.08,3.48,4.25-.07,3.58-4.82,8.5-14.33,8.3-1.16,0-2.22-.11-3.21-.23l-1.8,9.9c-1.6,7.5-3.74,17.74-11.37,26.67-6.55,7.79-13.21,9-16.19,9.11-5.57.18-9.27-2.79-9.4-6.75a5.92,5.92,0,0,1,5.5-6,4.76,4.76,0,0,1,5.11,4.54,3,3,0,0,1-1.75,3.15c-.48.39-1.21.79-1.19,1.65a1.45,1.45,0,0,0,1.66,1.19,8.76,8.76,0,0,0,5-2c5.43-4.52,7.52-12.41,10.26-26.76L957,546c.94-4.67,2-9.87,3.55-15.06-3.83-2.88-6.12-6.45-11.27-7.85-3.53-1-5.68-.14-7.19,1.77a5.21,5.21,0,0,0,.53,6.94L945.5,535c3.5,4,5.42,7.21,4.7,11.45-1.15,6.76-9.21,12-18.74,9-8.14-2.51-9.66-8.27-8.68-11.44.86-2.79,3.08-3.32,5.25-2.65,2.32.71,3.23,3.54,2.57,5.71a7.52,7.52,0,0,1-.44,1.14,14.22,14.22,0,0,0-1,1.82c-.53,1.7,1.81,2.91,3.44,3.41,3.64,1.12,7.19-.78,8.09-3.73a5.24,5.24,0,0,0-1.59-5.32l-3.44-3.69c-1.58-1.75-5-6.65-3.36-12.15a11.85,11.85,0,0,1,4-5.86,14.51,14.51,0,0,1,13.15-2.4c5.64,1.62,8.35,5.35,11.86,8.24a48.46,48.46,0,0,1,8.79-16.18c3.71-4.34,8.68-7.49,14.38-7.68s10,2.39,10.13,6.47C994.71,512.88,993.72,516.26,990.24,516.38Z" transform="translate(-907 -486.92)"/><rect class="cls-2" x="985.42" y="533.52" width="62" height="3.21" transform="translate(-862.23 660.88) rotate(-60)"/><rect class="cls-2" x="91.89" y="69.96" width="62" height="3.21"/><rect class="cls-2" x="1014.82" y="548.34" width="3.21" height="35.81" transform="translate(-889.17 676.44) rotate(-60)"/><rect class="cls-2" x="1041.76" y="501.67" width="3.21" height="35.81" transform="translate(-835.29 676.44) rotate(-60)"/><rect class="cls-2" x="998.53" y="517.96" width="35.81" height="3.21" transform="translate(-1030.61 90.92) rotate(-30)"/><rect class="cls-2" x="1041.78" y="504.12" width="3.21" height="62" transform="translate(-1034.77 106.49) rotate(-30)"/><rect class="cls-2" x="94.35" y="38.08" width="3.21" height="35.81"/><rect class="cls-2" x="148.24" y="38.08" width="3.21" height="35.81"/><rect class="cls-2" x="1027.79" y="564.82" width="31.14" height="2.81" transform="translate(-1050.33 110.64) rotate(-30)"/><path class="cls-2" d="M1062.71,561.85a6.76,6.76,0,1,1-2.48-9.23,6.76,6.76,0,0,1,2.48,9.23" transform="translate(-907 -486.92)"/><path class="cls-2" d="M1008.78,530.71a6.76,6.76,0,1,1-2.47-9.24,6.76,6.76,0,0,1,2.47,9.24" transform="translate(-907 -486.92)"/><path class="cls-2" d="M997.09,561.85a6.76,6.76,0,1,1,9.23,2.48,6.77,6.77,0,0,1-9.23-2.48" transform="translate(-907 -486.92)"/><path class="cls-2" d="M1051,530.71a6.76,6.76,0,1,1,9.23,2.47,6.77,6.77,0,0,1-9.23-2.47" transform="translate(-907 -486.92)"/><path class="cls-2" d="M1029.9,580.8a6.76,6.76,0,1,1,6.76-6.76,6.74,6.74,0,0,1-6.76,6.76" transform="translate(-907 -486.92)"/><path class="cls-2" d="M1029.9,518.51a6.76,6.76,0,1,1,6.76-6.75,6.74,6.74,0,0,1-6.76,6.75" transform="translate(-907 -486.92)"/></g></svg>